<?xml version="1.0" standalone="no"?><!DOCTYPE svg PUBLIC "-//W3C//DTD SVG 1.1//EN" "http://www.w3.org/Graphics/SVG/1.1/DTD/svg11.dtd"><svg class="icon" height="512" viewBox="0 0 1024 1024" version="1.1" xmlns="http://www.w3.org/2000/svg"><path d="M504.95061 960.907339c6.190455 5.037961 13.840803-4.107861 8.782085-9.605436-7.045436-0.656309-6.957467 5.374023-8.782085 9.605436zM329.324731 1008.911785c-5.762471 2.206147-10.003768-2.701344-11.704834 2.743845 14.171922-0.131459 27.002563 11.93217 45.373281 12.344339-4.10193-11.709776-25.175968-7.501096-33.668447-15.088185zM38.088662 678.373293c1.713915-0.202625 4.150363 0.235243 4.381652-1.367969 0.534734-11.876818 1.418378-24.066965-8.781096-31.549281 5.751598-1.268139 3.693714 4.7701 10.246919 2.747799-0.030641-8.286888-5.816834-11.854085-13.175598-9.603459-1.173251-6.212201-8.817668-6.365405-5.846486-16.455166l-4.392525 0c0.154193 33.602223 7.246085 73.980044 20.492849 106.975379 17.823135-6.250749-2.36034-35.677899-2.924726-50.748292zM635.212105 945.820142c0.398332 2.925714 7.443768 6.585822 8.776154 4.113791-3.569174-0.761081-3.118456-5.306811-8.776154-4.113791zM311.76155 1006.163986c-3.528649-2.631166-5.804973-6.436571-8.775166-9.59654-3.332942-0.992371-7.485282-1.226625-10.246919-2.745822-30.585574-22.836385-65.77223-33.180169-90.748538-60.350763-26.723829-6.567042-33.37291-38.99898-61.460755-39.767968 11.490347 13.335722 20.770594 29.703906 35.12142 39.767968 3.776741 2.646981 9.06576 2.619305 13.17461 5.488679 7.528772 5.275181 12.877096 14.056278 20.48593 19.199999 4.187923 2.830826 10.134239 5.610255 14.64142 8.238455 25.550578 14.864803 57.885651 35.664061 86.348106 41.143844 1.553791 0.053375 3.724355-0.652355 1.458903-1.377853zM106.961556 104.99558c28.806424 17.065019 61.425172-7.437838 64.397342-31.549281-4.649513-49.239968-73.598515-43.567443-79.024924-2.746811-1.144587 8.55376 3.118456 27.471073 14.627583 34.296092zM24.912076 273.772718c6.132139-7.462548-15.765251-19.766362-17.563181-6.84973 3.19061 4.781961 8.60417 7.479351 17.563181 6.84973zM57.110747 751.067407c1.31756-7.555459-5.608278-14.549498-8.780108-21.944833-0.266873 2.02922-3.545452 1.259243-5.860324 1.370934 6.588787 13.02437 6.120278 32.671134 16.106254 42.520709 5.579614 29.510177 30.277188 53.005836 43.903505 79.546809 11.620818 7.389405 17.130254 20.515582 29.273945 27.424617-1.576525-11.324293-12.708077-13.696494-13.181529-26.060602-29.091088-26.21776-39.206547-70.232955-61.461743-102.857634zM105.401834 634.48758l5.864278 0c-0.33705-2.590641 1.642749-3.022579 1.451985-5.483737-2.008463 0.05634-3.206425-0.646425-4.393513-1.372911-0.432927 2.694425 1.979799 2.7221 2.941529 4.112803-0.912309 1.898749-5.645838 0.206579-5.864278 2.743845zM92.233155 583.739288c1.090224-0.579212 2.958332-7.977513-2.928679-8.224618 0.88661 2.823907-2.362317 9.528339 2.928679 8.224618zM1001.100341 523.392479c25.900478-31.878424 9.836726-81.185604 1.455938-123.437464-6.107428-30.792154-21.007814-59.580786-26.345266-85.027581-2.413714-3.681853-7.980479-4.40834-10.237034-8.231536-17.436664-61.843272-52.623319-107.032707-95.132167-145.382297-9.422579 1.757405-13.066872 0.481359-20.487907 4.118733-1.29878-2.438425-4.091058-3.488123-2.929668-8.234502-6.722224 0.609853-13.270486 2.892108-13.17461-5.486703 8.463814 0.580201 13.571953 1.165344 23.422517 2.752741-3.373467-4.358919-4.68905-3.494054-2.928679-10.971428-62.025141-63.052106-160.533741-107.481449-264.908595-117.956692-44.550918-9.037096-90.803889-6.568031-134.640181-1.372911-18.259026 2.162656-34.142887 13.771614-54.156354 10.977359-38.292261 14.852942-80.673604 25.891582-111.222607 47.995551-3.997158 0.125529-2.941529-2.284232-5.853405 0-18.570378 14.145235-42.894331 22.909528-58.543937 39.785759-33.911597 19.414486-57.961759 48.081543-87.811951 71.308353-0.870795 4.373745 2.745822 4.237344 0 6.864556-17.984247 7.231258-18.329204 22.828478-27.815042 37.03203 3.806394 0.54956 4.232401 4.2581 5.863289 6.858625-17.449513 17.639289-15.262146 58.893836-45.373281 60.33989 15.55966 16.476911-1.007197 38.232956-13.175598 50.74928 5.425421 6.066903-2.080618 11.703845-4.388571 15.082254 1.780139 10.700602-5.205992 17.765806-1.468788 26.06159-8.403521 18.79376-28.272679 27.017389-23.409667 47.998516-4.478517 0.992371-5.33844-1.389714-8.782085-1.370934-0.859923 2.849606-2.812046 4.679166-5.853405 5.489668-3.848896 25.784833-2.009452 59.290191-1.464834 91.894113 0.255012 15.234471 4.96383 28.913173 5.853405 42.510825 0.836201 12.655691-5.414548 28.167907 7.322193 35.667026 4.150363 0.23722-1.771243-8.97878 4.388571-6.868509 3.617606 1.185112 5.366116 4.116757 5.846486 8.228571 0.598981 6.049112-7.009853 4.409328-4.388571 12.349281 12.01322 1.640772 13.651027-11.314409 24.88142-16.461096-1.318548-4.011984-1.318548-4.208679 0-8.22956 4.518054-4.525961 8.449977-1.144587 11.710764-6.856648-6.308077 1.509313-6.806239-1.025977-10.246919-1.371923 4.957899-9.73393 9.126054-22.053559 21.958671-20.568957 1.314595-6.470177-8.130718-1.28593-4.39549-5.483737 0.978533 3.784649 5.045869-6.277436 0-1.365004-1.072432-4.250193 8.682255-10.132262 16.105266-10.977359-1.500417-1.331398-2.964262-2.711228-4.398455-4.119722 8.087228-19.02505-16.622208-52.377203 2.93461-63.090655 0.083027-30.310794-8.437127-50.038609-1.470764-83.662577-0.384494-4.650502-7.535691-2.99095-7.317251-8.217699 1.388726-4.200772 7.122533-4.306533 7.317251-9.603459 8.129729-21.298409 7.276726-39.768956 10.246919-60.351751 3.100664-21.468416 24.193482-36.285775 20.486918-60.345821 9.689451-5.745668 14.782764-20.906007 14.648339-31.542362 10.961544 2.54122 23.941436-1.303722 27.804169-9.603459-0.920216-6.448432-6.843799-8.223629-7.325158-15.082254 13.644108-24.70054 39.71657-37.764447 52.692508-63.096585 9.219953 1.326456 9.060818-6.135104 13.168679-9.591598 68.096986-47.407443 166.026374-80.358299 270.762-74.073944 2.276324 1.975846 5.08244 3.460448 5.844509 6.863567 9.322749 1.778162 17.577019 4.555614 27.813065 5.486703 12.582548 12.545976 37.379953 12.960123 55.60735 20.565003 24.6442 10.288432 52.576863 24.004694 77.571951 32.928123 35.24003 12.567722 74.606701 24.526578 99.516785 45.255659 28.438733 23.648864 36.211644 59.043087 52.69152 91.889171 6.665884 13.273451 14.676015 24.531521 20.497791 38.406918-7.831228-4.556602-15.184061-9.547119-19.026038-17.833019-4.485436 0.998301-4.31444-2.365282-8.783073-1.3739-7.513946-10.78956-19.245467-17.623474-33.662516-21.944833-9.22193-14.089884-30.958208-17.86366-46.832184-24.679783-12.381899-5.320648-21.459521-20.394996-35.128339-20.57983 0.172973 8.04176 9.451243 7.805529 11.703845 6.857637 0.70573 4.322347-4.496309 3.10956-2.922749 8.224618 5.726888 7.963675 13.922841 10.653158 20.487907 17.834996 3.065081 3.358641 3.700633 9.533282 7.321204 13.715274 13.160772 15.183073 35.61464 23.645899 48.298995 38.398022 0.244139 0.284664 0.476417 0.576247 0.712649 0.863876-1.110981-0.271815-2.276324-0.496185-3.50295-0.664216-4.007042-0.544618-18.939057-1.296803-44.791103-2.250625-13.461251-5.262332-27.926733-8.935289-43.15725-10.291397 2.26644 2.951413 4.781961 5.66956 7.487258 8.209791-1.919506-0.489266-3.558301-1.103073-4.910455-1.842409-2.666749-1.452973-5.086394-6.175629-7.264865-14.167969s-6.902116-14.407166-14.168957-19.254362c-7.265853-4.835336-13.204262-7.265853-17.801389-7.265853-4.608988 0-13.928772 6.539367-27.973188 19.617111-14.054301 13.078733-22.773127 20.469127-26.15549 22.160308-3.394224 1.703042-9.93359 2.543197-19.617111 2.543197-9.694394 0-20.106378 0.612819-31.242872 1.81671-11.149343 1.213776-18.41322 0.726486-21.796571-1.452973-3.394224-2.179459-6.539367-6.413838-9.445312-12.714996-9.207104-20.820015-23.737822-31.242872-43.595118-31.242872-10.171799 0-16.711166 1.214764-19.617111 3.632432-2.906934 2.42854-4.359907 6.175629-4.359907 11.261034s0.726486 10.898285 2.179459 17.437652c1.451985 6.539367 2.179459 11.022826 2.179459 13.441482 0 8.718826-7.754131 14.894455-23.250532 18.527876-15.507274 3.632432-25.190795 5.449143-29.063412 5.449143-3.882502 0-7.390394-0.601946-10.534548-1.81671-3.157004-1.202903-6.301158-1.815722-9.445312-1.815722-3.157004 0-6.176618 1.452973-9.082563 4.359907-2.905946 2.905946-4.359907 6.788448-4.359907 11.624772 0 4.848185 3.019614 10.171799 9.082563 15.984679 6.051089 5.81288 12.101189 8.718826 18.164138 8.718826 6.051089 0 14.044417-1.81671 23.977019-5.450131 9.922718-3.632432 30.880123-7.140324 62.848492-10.534548 31.970347-3.382363 49.157929-5.086394 51.587458-5.086394 10.649204 0 15.984679 4.848185 15.984679 14.531706 0 9.694394-5.211923 15.258193-15.62193 16.711166-10.42088 1.452973-21.433822 3.268695-33.058594 5.450131-11.623783 2.179459-22.160308 3.268695-31.605621 3.268695-9.444324 0-20.343598-0.477405-32.695845-1.452973-12.352247-0.964695-18.527876 0.726486-18.527876 5.086394s3.632432 10.421868 10.898285 18.164138c7.265853 7.753143 12.226718 15.507274 14.894455 23.250532 2.656865 7.754131 3.997158 19.868169 3.997158 36.329265 0 48.929605-1.090224 87.676538-3.269683 116.252661-2.179459 28.586007-3.757961 45.297172-4.722656 50.133497-0.975568 4.847197-4.608988 7.264865-10.898285 7.264865l-50.133497-3.632432c-18.890625 0-34.637096-2.292139-47.227551-6.902116-12.601328-4.598116-18.890625-8.105019-18.890625-10.534548 0-1.452973 0.964695-2.905946 2.905946-4.359907 13.078733-9.195243 22.762254-18.766084 29.063412-28.700663 6.289297-9.921729 9.445312-17.67586 9.445312-23.250532 0-5.562811-3.157004-8.355089-9.445312-8.355089-11.148355 0-25.554532 7.99234-43.230393 23.977019-17.687721 15.983691-33.308663 27.133034-46.863813 33.422331-16.960247 7.754131-30.278177 17.562193-39.961698 29.426161-9.694394 11.874841-14.531706 22.285837-14.531706 31.242872 0 8.967907 2.781405 16.10922 8.355089 21.433822 5.563799 5.336463 13.556139 7.99234 23.977019 7.99234 10.410007 0 20.457266-1.567629 30.152648-4.722656 9.683521-3.145143 22.035768-4.723645 37.055752-4.723645 74.110515 0 148.334698 11.512092 222.695283 34.512555 74.347735 23.001451 121.451734 39.961698 141.317926 50.858995 19.856308 10.898285 39.235211 16.348417 58.125836 16.348417s38.508725-7.264865 58.852323-21.796571c20.343598-14.531706 36.078207-34.148818 47.226562-58.852323 11.136494-24.702517 16.711166-39.711628 16.711166-45.047103 0-3.382363-1.941251-5.087382-5.81288-5.087382-3.882502 0-11.385575 2.429529-22.523057 7.265853-46.501064 19.868169-87.677526 29.789899-123.518514 29.789899-12.114038 0-21.558362-1.452973-28.335937-4.359907-13.078733-5.81288-36.817543-13.316942-71.204569-22.524046-34.397899-9.195243-69.751596-17.437652-106.079873-24.703505-8.241421-1.92939-12.352247-4.108849-12.352247-6.539367 0-4.836324 15.371861-9.319784 46.137327-13.441482 30.755582-4.109838 54.005126-6.176618 69.751596-6.176618 15.73461 0 31.605621 1.214764 47.589311 3.632432 15.984679 2.42854 25.906409 4.484448 29.790887 6.176618 3.870641 1.702054 6.902116 5.210934 9.081575 10.534548 2.179459 5.336463 5.200062 7.991351 9.081575 7.991351 3.871629 0 7.867799-5.562811 11.989498-16.711166 4.109838-11.136494 6.539367-31.480092 7.265853-61.031782 0.726486-29.540818 3.870641-60.055226 9.444324-91.549156 5.562811-31.48108 12.464926-55.945388 20.707335-73.38304 3.382363-6.777575 5.086394-12.590455 5.086394-17.437652 0-10.648216-8.479629-15.984679-25.429992-15.984679l-21.796571 0c-8.242409 0-18.050471-1.089235-29.426161-3.268695-11.387552-2.179459-25.316324-3.268695-41.77742-3.268695-12.114038 0-18.164138-4.109838-18.164138-12.352247 0-8.230548 3.019614-13.316942 9.081575-15.258193 6.051089-1.92939 21.673019-2.905946 46.864802-2.905946 25.179922 0 40.801852 0.488278 46.863813 1.452973 6.051089 0.976556 13.680679 1.452973 22.886795 1.452973 5.583567 0 12.114038-0.673112 19.576586-2.012417 3.368525 8.238455 13.983135 9.691428 22.380725 13.21217 0.33112 2.591629-1.648679 3.026533-1.458903 5.484726 37.801018 30.862331 63.471195 73.094423 98.059858 106.970437 6.010564 17.50783 33.70403 46.926084 33.654609 67.206423-0.023722 8.79098-9.018316 19.00627-11.703845 30.1823-1.766301 7.309343-2.139923 15.200864-2.935598 21.933961-1.055629 9.033143-3.700633 17.021528-4.386594 24.684725-1.519197 16.896 8.170255 33.268138 7.322193 49.375381-2.056896 38.926825-32.032617 62.367133-42.448555 89.15521-26.928432 18.189837-42.459427 47.066439-73.175473 61.718732-0.55549 4.496309-4.277869 6.046147-5.85637 9.595552-32.30542 11.284756-50.064307 33.96003-92.199534 32.923181-4.394502 5.0261-9.219953 9.636077-16.100324 12.336432-15.226563-3.552371-28.307273 6.846764-36.585265 9.608401-12.03793 4.010996-36.260076 2.750764-48.298995 4.116757-49.826099 5.624093-111.731642-3.922038-156.603795-15.092139-12.083397-3.00973-25.182887-10.8202-33.654609-13.708355-19.337389-6.614486-34.55308-2.30993-40.980756-17.834996-5.247506 0.498162-5.365127 3.680865-10.246919 1.372911-17.871567-12.183227-38.228014-22.546779-57.081079-30.172416-16.205096-29.163242-51.178253-40.728709-67.318114-69.958176-34.244694-18.188849-46.388385-57.098871-73.17745-82.282747-7.833204 7.445745 8.574517 24.997065-2.924726 34.287196 6.190455 13.608525 11.764139 37.778285 8.783073 57.607906 11.418193 4.781961 17.414918 22.597189 2.916818 27.417698-0.700788 10.77671 12.445158 24.752926 10.251861 37.043891 8.563645 2.22295 12.103166-0.437869 14.636478-6.859614 5.923583 7.027645 6.042193 20.149868 10.238023 28.804447 7.935011 1.478672 6.341683-5.956201 13.170656-5.490656 2.537266 4.483459 7.916231 6.296216 13.169668 8.22956-3.041359 10.166857 7.17393 7.915243 10.252849 12.341374-1.732695 0.672124-3.326023 1.462857-4.393513 2.74088 9.878239-4.768123 8.554749 7.378533 11.709776 10.978347 6.517621 7.439814 23.505544 12.330502 20.487907 26.057636 11.261034-2.790301 8.040772-9.621251 14.634502-12.341374 5.753575 9.738872 10.988231 6.513668 21.952741 15.087196 2.299058-5.203027 9.818934-12.701158 8.786038-16.457142-0.142332 5.998703-7.145266-1.421344-7.317251-4.11478 6.563089-13.313976 0.966672-26.955119 2.917807-38.404941 12.13776 6.000679 13.904061 21.710579 23.423505 30.174393-1.068479 9.387984-9.843645 14.815382-10.24 26.057636 6.694548 6.132139 16.117127 12.091305 27.804169 9.604448 13.418749 7.078054 15.286857 24.979273 21.956694 38.397034 6.96834 0.507058 8.012108 0.460602 14.627583 2.746811-0.188788 3.375444-0.220417 6.608556 1.459892 8.225606 16.091428 1.905668 20.468138-10.084818 35.132292-5.485714 22.900633-21.149158 56.598732-8.101065 87.807009-12.341374 1.665483-10.691706 9.753699-7.930069 19.029992-12.344339 2.82193 4.386594-0.858934 6.91793 1.462857 12.344339 2.005498 2.686517 8.829529 0.873761 8.783073 5.484726 9.961266-3.549405 21.679938-11.381621 11.703845-15.081266 12.139737-3.241019 19.173312-7.142301 30.741744-8.231536 2.157714 6.008587 7.014795 4.185946 4.388571 12.342363 20.943567-0.992371 35.216308-1.815722 51.219767-5.484726 2.301035 2.415691 0.415135 8.758363 4.399444 9.598517 9.706255 3.948726 12.01915-8.102054 24.880432-5.484726 2.378131 2.630178 2.520463 11.486393-1.469776 12.341374 8.705977 5.676479 14.356756-1.367969 26.347242 0 3.105606-2.114224 6.512679-3.948726 10.243953-5.484726 32.157157-1.169297 48.08945-19.500478 68.783936-30.169451 8.261189-4.264031 15.856185-7.425977 21.958671-12.342363 44.9364-36.302578 80.283179-85.779766 121.474468-124.808398 6.682687-15.218656 20.245745-24.003706 30.733837-35.668014 4.312463 0.893529 5.924571 8.856216 10.24 5.490656 11.503197-6.67478 1.305699-35.105605 19.029992-32.914285 14.450656 1.786069 8.652602 24.96247 10.24593 39.771922 0.900448 8.39166 5.877127 15.393606 5.85044 23.318733-0.034595 11.066316-5.938409 19.387799 1.466811 24.684725 13.793359-6.953513 17.728247-25.01881 20.486918-38.400987 7.447722-36.157281 5.697235-79.404476 8.779119-116.578838 0.285653-3.470332 2.89112-7.61773 2.925714-10.969451 0.0939-7.601915-4.33322-14.367629-4.393513-21.944833-0.164077-25.399351 27.97813-47.299705 13.184494-74.071967zM658.819455 578.467072c-1.452973 1.702054-4.848185 2.542208-10.171799 2.542208l-40.688184-2.179459c-32.457636 0-72.180137 6.301158-119.157618 18.890625-4.359907 0.976556-8.241421 1.452973-11.624772 1.452973-3.393235 0-5.086394-3.383351-5.086394-10.171799 0-6.777575 2.542208-11.739428 7.629591-14.894455 5.086394-3.145143 22.524046-7.743258 52.313944-13.80522 29.789899-6.051089 55.946377-9.081575 78.469434-9.081575 22.524046 0 36.568462 1.213776 42.142145 3.631444 5.562811 2.429529 8.355089 6.539367 8.355089 12.352247s-0.728463 9.569853-2.180448 11.262023zM662.814637 507.262503c-1.702054 2.667737-4.722656 3.997158-9.081575 3.997158l-39.961698-2.179459c-37.782238 0-77.504739 6.301158-119.157618 18.889637-3.882502 0.976556-7.515923 1.452973-10.898285 1.452973-3.394224 0-5.087382-2.905946-5.087382-8.718826s1.452973-11.262023 4.359907-16.348417c2.906934-5.086394 18.766084-9.683521 47.5903-13.80522 28.814331-4.108849 56.184585-6.176618 82.101866-6.176618 25.907397 0 41.16559 0.250069 45.774578 0.726486 4.598116 0.488278 6.903104 3.632432 6.903104 9.445312 0.001977 5.813869-0.850039 10.059119-2.542208 12.716973zM619.946993 413.897625c29.789899 0 46.863813 1.214764 51.223721 3.632432 4.359907 2.42854 6.539367 6.539367 6.539367 12.352247 0 9.694394-4.609977 14.531706-13.80522 14.531706-2.42854 0-7.754131-0.601946-15.984679-1.81671-8.241421-1.202903-19.377914-1.81671-33.422331-1.81671-32.944926 0-72.657542 6.06295-119.157618 18.164138-1.941251 0.488278-4.359907 0.726486-7.264865 0.726486-2.906934 0-4.359907-3.268695-4.359907-9.808061s2.179459-11.262023 6.539367-14.168957c4.359907-2.905946 19.617111-7.265853 45.774578-13.078733 26.154501-5.811892 54.128678-8.717838 83.917588-8.717838zM886.947078 443.843694c-15.103011-7.795645-19.354192-25.746285-32.204601-35.655165-14.36071-26.772262-42.273605-40.851273-62.93745-61.717743-3.445622 0.033606-4.305544-2.365282-8.776154-1.374888-3.664062-3.4219-7.559413-6.782517-11.659366-10.045282 5.197096-1.676355 8.613065-3.124386 10.240988-4.345081 1.152494-0.864865 2.068757-1.791012 2.764602-2.770533 1.757405 2.221961 3.690749 4.321359 5.96905 6.189467 6.393081 5.247506 14.415073 6.495876 20.495814 10.971428 12.119969 8.951104 19.63688 26.546903 32.196694 34.288184 11.021838 16.637034 24.275521 31.197405 42.437682 41.145821 3.214332 7.040494 6.094579 15.592278 1.472741 23.315768zM158.087423 783.981692c-5.18227-0.740324-3.593884 4.857081-8.776154 4.118733-3.948726-3.135259-2.83478-6.929791-4.392525-9.607413 2.501683-1.781127 8.246363 0.853004 13.168679-1.366981-1.025977 4.219552-1.025977 2.63512 0 6.85566zM278.102987 829.246246c-3.058162-0.793699-4.180015-3.404108-8.781096-2.745822-0.333097-2.439413 1.468788-6.873452-2.924726-5.482749 4.82644-4.512123-3.929946-3.281544-2.93461-8.230548 5.254425-0.806548 7.091892 1.586409 10.252849 2.743845-3.308232 5.55688 5.526239 3.799475 4.387583 13.715274zM417.137671 911.53097c-8.277992-22.174146 21.986347-4.321359 0 0l0 0zM444.953701 911.53097c0.117622-1.945205 0.23129-3.878548-1.470764-4.11478 0.379552-3.207413 6.428664-0.785791 7.323181 0-1.273081 2.017359-2.200216 4.352-5.851428 4.11478zM809.368208 660.552135c-0.324201 2.585699 1.65461 3.023567 1.47373 5.477807l5.848463 0c1.998579-1.751475 1.998579-6.471166 0-8.231536-3.64627-0.214486-4.534857 2.158703-7.322193 2.75373zM850.353905 704.431918c-1.878981 1.808803-1.878981 5.056741 0 6.861591l5.859336 0c1.090224-5.146687-1.66054-6.685652-5.859336-6.861591zM910.355757 816.896965c13.151876 1.35512 21.589992-1.708973 27.812076-6.851706-7.751166-4.937143-22.398517 1.149529-27.812076 6.851706zM370.311417 191.488983c3.736216-0.147274 6.973282-0.777884 8.783073-2.739892-2.568896-3.357652-8.344216-2.786347-8.783073 2.739892zM168.340272 582.3644l0-4.108849c-4.13356 1.132726-3.795521-1.934332-7.325158-1.368957-1.125807 5.345359 4.847197 7.640463 7.325158 5.477807zM324.937148 201.092442c-11.486393-0.260942-14.599907 7.34295-23.417575 9.597529 8.236479 2.354409 21.038455-1.981776 23.417575-9.597529zM346.887912 430.132374c-17.112463-18.405312-35.044323 14.014764-14.634502 16.461096 7.573251 0.900448 9.014363-3.358641 14.634502-6.863567l0-9.597529zM245.761985 291.470324c-9.445312 4.121699-15.984679 6.176618-19.617111 6.176618s-6.903104-0.840154-9.808061-2.543197c-2.905946-1.691181-5.699212-2.542208-8.355089-2.542208-2.667737 0-5.336463 2.542208-7.99234 7.628602-2.667737 5.086394-3.997158 8.605158-3.997158 10.534548 0 8.242409 4.598116 19.379891 13.80522 33.422331 9.195243 14.055289 17.188571 21.071073 23.977019 21.071073 6.778564 0 22.399505-3.997158 46.863813-11.989498 24.453436-7.99234 42.016617-16.824833 52.676693-26.519227 10.648216-9.683521 15.984679-16.348417 15.984679-19.980849 0-3.632432-7.390394-8.106007-22.160308-13.441482-14.780787-5.324602-29.187953-7.99234-43.230393-7.99234-15.985667-0.000988-28.700663 2.064803-38.145976 6.175629zM279.548053 444.777748c17.915057-6.539367 32.446764-13.192401 43.595118-19.980849 11.136494-6.777575 16.711166-11.86298 16.711166-15.258193 0-2.417668-3.632432-4.722656-10.898285-6.902116-7.265853-2.179459-15.984679-3.269683-26.156478-3.269683-10.171799 0-20.957405 1.339305-32.332107 3.997158-11.387552 2.667737-20.230918 6.06295-26.520215 10.171799-6.301158 4.121699-10.898285 6.176618-13.80522 6.176618-10.171799 0-15.258193 4.848185-15.258193 14.531706 0 4.359907 2.293127 8.843367 6.903104 13.441482 4.598116 4.608988 10.898285 6.902116 18.890625 6.902116s20.946532-3.269683 38.871474-9.80905zM235.590186 549.040911c7.99234 0 27.723119-7.265853 59.215072-21.797559 31.48108-14.531706 47.227551-24.453436 47.227551-29.789899 0-3.383351-6.788448-5.086394-20.344586-5.086394-13.567011 0-30.516385 2.542208-50.859983 7.628602-20.344586 5.086394-33.308663 9.808061-38.871474 14.168957-5.574672 4.359907-8.355089 11.261034-8.355089 20.707335 0 9.445312 3.995181 14.168957 11.988509 14.168957zM465.064032 939.950923l3.038394 0 0-0.73044-0.988417 0 0-3.52173-0.82434 0 0 3.52173-1.224649 0 0-3.21532-0.82434 0 0 6.017482c0 2.001544-0.282687 3.494054-0.848062 4.474564 0.282687 0.235243 0.510023 0.463568 0.682996 0.682996 0.615784-1.20488 0.943938-2.747799 0.983475-4.627768l1.301745 0 0 4.462703 0.82434 0 0-5.193143-2.119166 0 0-1.872062zM474.438179 939.974645l0-0.706718-4.96976 0 0-1.943228c1.381807-0.022734 3.183691-0.161112 5.405652-0.41217l-0.317282-0.870795c-1.648679 0.290595-3.619583 0.45566-5.911722 0.494208l0 4.687073c0 1.224649-0.085992 2.195274-0.258965 2.908911-0.18088 0.737359-0.522873 1.503382-1.024988 2.296093 0.203614 0.228324 0.400309 0.479382 0.589097 0.754162 1.013127-1.3739 1.519197-3.152062 1.519197-5.335475l0-1.801884 0.559444 0c0.228324 1.876015 0.732417 3.362594 1.513266 4.45776-0.640494 0.648402-1.550826 1.258255-2.731984 1.830548 0.220417 0.282687 0.41217 0.561421 0.577236 0.836201 1.138656-0.65532 2.031197-1.319537 2.679598-1.989683 0.557467 0.61183 1.344247 1.228602 2.361328 1.849328 0.195707-0.258965 0.435892-0.54956 0.718579-0.870795-1.09912-0.498162-1.93532-1.047722-2.508602-1.648679 0.88661-1.138656 1.487568-2.649946 1.800896-4.533869zM470.852202 940.044822l2.691459 0c-0.271815 1.589374-0.747243 2.851583-1.431228 3.786625-0.644448-0.984463-1.064525-2.246672-1.260232-3.786625zM480.467522 941.835834c-0.431938-0.518919-1.001266-1.109992-1.706996-1.779151l-0.506069 0.471475 0-1.55478 1.66054 0 0-0.82434-1.66054 0 0-2.496741-0.895506 0 0 2.496741-1.837467 0 0 0.82434 1.684262 0c-0.400309 1.515243-1.001266 2.885189-1.801884 4.109838 0.157158 0.353853 0.290595 0.698811 0.400309 1.035861 0.61183-0.910332 1.130749-2.026255 1.55478-3.344803l0 6.453374 0.895506 0 0-6.488957c0.479382 0.502116 0.981498 1.087259 1.507336 1.75444l0.706718-0.659274zM486.367383 937.278243l0-0.858934-6.688618 0 0 0.883645 0.73044 0c0.282687 2.904957 1.017081 5.103197 2.202193 6.595706-0.871784 0.870795-2.135969 1.696124-3.791567 2.473019 0.266873 0.314317 0.486301 0.61183 0.659274 0.895506 1.602224-0.808525 2.849606-1.680309 3.745112-2.615351 0.800618 0.855969 1.876015 1.632865 3.227181 2.331676 0.188788-0.282687 0.451707-0.607876 0.788757-0.977544-1.397622-0.557467-2.520463-1.264185-3.368525-2.119166 1.295815-1.67339 2.127073-3.876571 2.496741-6.607567zM481.351167 937.300977l4.015938 0c-0.329143 2.450286-1.035861 4.400432-2.119166 5.852417-1.028942-1.365992-1.66054-3.317127-1.896772-5.852417zM493.38712 938.967448c-0.207568 0-0.386471 0.072154-0.535722 0.21844s-0.224371 0.319259-0.224371 0.523861 0.072154 0.379552 0.21844 0.526826 0.325189 0.221405 0.541652 0.221405 0.397344-0.073143 0.541652-0.221405 0.21844-0.322224 0.21844-0.526826-0.074131-0.378564-0.224371-0.523861-0.327166-0.21844-0.535722-0.21844zM493.38712 944.27327c-0.207568 0-0.386471 0.072154-0.535722 0.21844s-0.224371 0.321236-0.224371 0.529791c0 0.21251 0.074131 0.389436 0.224371 0.532757s0.327166 0.215475 0.535722 0.215475 0.386471-0.071166 0.535722-0.215475 0.224371-0.320247 0.224371-0.532757c0-0.207568-0.074131-0.384494-0.224371-0.529791s-0.327166-0.21844-0.535722-0.21844zM506.83651 945.621471l1.943228-6.511691-1.118888 0-1.272093 4.834347c-0.063259 0.228324-0.098842 0.427985-0.105761 0.600958l-0.053375 0c-0.022734-0.258965-0.055351-0.459614-0.094888-0.600958l-1.365992-4.834347-1.066502 0-1.401575 4.810625c-0.059305 0.191753-0.096865 0.397344-0.111691 0.61183l-0.047444 0c-0.019768-0.251058-0.049421-0.448741-0.087969-0.595027l-1.301745-4.828417-1.200927 0 1.955089 6.511691 1.165344 0 1.401575-4.581313c0.078085-0.243151 0.123552-0.446764 0.135413-0.61183l0.022734 0c0.015815 0.220417 0.051398 0.427985 0.105761 0.623691l1.295815 4.569452 1.201915 0zM515.910177 943.943139c-0.063259 0.228324-0.098842 0.427985-0.105761 0.600958l-0.053375 0c-0.022734-0.258965-0.055351-0.459614-0.094888-0.600958l-1.365992-4.834347-1.066502 0-1.401575 4.810625c-0.059305 0.191753-0.096865 0.397344-0.111691 0.61183l-0.047444 0c-0.019768-0.251058-0.049421-0.448741-0.087969-0.595027l-1.301745-4.828417-1.200927 0 1.955089 6.511691 1.165344 0 1.401575-4.581313c0.078085-0.243151 0.123552-0.446764 0.135413-0.61183l0.022734 0c0.015815 0.220417 0.051398 0.427985 0.105761 0.623691l1.295815 4.569452 1.200927 0 1.943228-6.511691-1.118888 0-1.271104 4.835336zM525.431598 943.943139c-0.063259 0.228324-0.098842 0.427985-0.105761 0.600958l-0.053375 0c-0.022734-0.258965-0.055351-0.459614-0.094888-0.600958l-1.365992-4.834347-1.066502 0-1.401575 4.810625c-0.059305 0.191753-0.096865 0.397344-0.111691 0.61183l-0.047444 0c-0.019768-0.251058-0.049421-0.448741-0.087969-0.595027l-1.301745-4.828417-1.199938 0 1.955089 6.511691 1.165344 0 1.401575-4.581313c0.078085-0.243151 0.123552-0.446764 0.135413-0.61183l0.022734 0c0.015815 0.220417 0.051398 0.427985 0.105761 0.623691l1.295815 4.569452 1.200927 0 1.943228-6.511691-1.118888 0-1.272093 4.835336zM528.781343 944.261409c-0.216463 0-0.397344 0.072154-0.541652 0.21844s-0.21844 0.323212-0.21844 0.535722c0 0.203614 0.071166 0.379552 0.215475 0.526826s0.322224 0.221405 0.538687 0.221405c0.224371 0 0.408216-0.073143 0.553513-0.221405s0.21844-0.322224 0.21844-0.526826c0-0.207568-0.072154-0.385483-0.21844-0.532757s-0.327166-0.221405-0.547583-0.221405zM534.528988 936.306629l-3.243984 0.941961 0 1.060571 2.096432-0.606888 0 6.924849-2.044046 0 0 0.995336 5.229714 0 0-0.995336-2.038116 0zM538.214795 941.564019l3.468355 0 0 0.889575-3.468355 0 0-0.889575zM546.55308 940.863231l0-0.022734c1.216741-0.341992 1.824618-1.109004 1.824618-2.302023 0-0.648402-0.235243-1.175228-0.706718-1.580479s-1.095166-0.608865-1.872062-0.608865c-0.796664 0-1.493498 0.172973-2.090502 0.518919l0 1.089235c0.565375-0.431938 1.16732-0.648402 1.807815-0.648402 1.118888 0 1.678332 0.500139 1.678332 1.501405 0 1.083305-0.732417 1.624957-2.197251 1.624957l-0.72451 0 0 0.953822 0.760093 0c1.653622 0 2.47895 0.577236 2.47895 1.731707 0 0.518919-0.183846 0.932077-0.550548 1.239475s-0.863876 0.462579-1.49251 0.462579c-0.784803 0-1.489544-0.241174-2.114224-0.72451l0 1.194996c0.529791 0.321236 1.226625 0.482347 2.090502 0.482347 0.981498 0 1.76729-0.251058 2.358363-0.754162s0.88661-1.163367 0.88661-1.984741c0-0.589097-0.190764-1.08034-0.57427-1.475707s-0.904402-0.625668-1.563676-0.696834zM550.504771 941.564019l3.468355 0 0 0.889575-3.468355 0 0-0.889575zM555.35691 937.519417l4.557591 0-3.391259 8.102054 1.194996 0 3.568185-8.719814 0-0.401297-5.929513 0zM563.334423 944.261409c-0.216463 0-0.397344 0.072154-0.541652 0.21844s-0.21844 0.323212-0.21844 0.535722c0 0.203614 0.071166 0.379552 0.215475 0.526826s0.322224 0.221405 0.538687 0.221405c0.224371 0 0.408216-0.073143 0.553513-0.221405s0.21844-0.322224 0.21844-0.526826c0-0.207568-0.072154-0.385483-0.21844-0.532757s-0.327166-0.221405-0.547583-0.221405zM566.299674 939.936096c-0.617761 0.653344-0.927135 1.514255-0.927135 2.581745 0 0.96173 0.286641 1.744556 0.858934 2.349467s1.330409 0.906378 2.273359 0.906378c0.702764 0 1.303722-0.148263 1.801884-0.446764l0-1.060571c-0.498162 0.36868-1.027954 0.553513-1.589374 0.553513-0.663228 0-1.191042-0.21251-1.580479-0.636541s-0.586131-1.011151-0.586131-1.760371c0-0.762069 0.206579-1.370934 0.620726-1.827583s0.950857-0.685961 1.61112-0.685961c0.561421 0 1.071444 0.169019 1.530069 0.506069l0-1.14261c-0.424031-0.21251-0.935042-0.317282-1.530069-0.317282-1.035861 0.000988-1.863166 0.327166-2.481915 0.98051zM574.764477 938.956575c-1.027954 0-1.843398 0.311351-2.444355 0.934054s-0.900448 1.470764-0.900448 2.546162c0 1.001266 0.290595 1.807815 0.870795 2.419645s1.359073 0.918239 2.331676 0.918239c0.997313 0 1.792-0.315305 2.38505-0.947892s0.889575-1.461869 0.889575-2.490811c0-1.056618-0.277745-1.882934-0.833235-2.481915s-1.321513-0.897483-2.299058-0.897483zM576.200647 944.188266c-0.345946 0.422054-0.848062 0.633575-1.507336 0.633575-0.640494 0-1.149529-0.216463-1.528093-0.648402s-0.567351-1.023012-0.567351-1.77322c0-0.77393 0.187799-1.381807 0.562409-1.824618s0.88661-0.665205 1.534023-0.665205c0.659274 0 1.16139 0.21251 1.507336 0.636541s0.518919 1.031907 0.518919 1.824618c0 0.788757-0.172973 1.394656-0.518919 1.81671zM586.747056 938.956575c-0.96173 0-1.684262 0.442811-2.16661 1.330409-0.129483-0.408216-0.360772-0.732417-0.694857-0.971614s-0.718579-0.358795-1.153483-0.358795c-0.891552 0-1.568618 0.395367-2.031197 1.184124l-0.022734 0 0-1.02993-1.153483 0 0 6.511691 1.153483 0 0-3.704587c0-0.585143 0.144309-1.066502 0.432927-1.443089s0.652355-0.565375 1.092201-0.565375c0.953822 0 1.431228 0.617761 1.431228 1.855259l0 3.856803 1.153483 0 0-3.709529c0-0.541652 0.151228-1.011151 0.453683-1.406517s0.665205-0.595027 1.089235-0.595027c0.502116 0 0.862888 0.152216 1.083305 0.456649s0.329143 0.809513 0.329143 1.516232l0 3.739181 1.153483 0 0-4.015938c-0.000988-1.76729-0.717591-2.649946-2.150795-2.649946z" /></svg>